<svg width="220" height="111" viewBox="0 0 220 111" fill="none" xmlns="http://www.w3.org/2000/svg">
<path fill-rule="evenodd" clip-rule="evenodd" d="M0 111L9.16667 108.353C18.3333 105.706 36.6667 100.413 55 99.3539C73.3333 98.2952 91.6667 101.471 110 104.118C128.333 106.765 146.667 108.883 165 107.294C183.333 105.706 201.667 100.413 210.833 97.7658L220 95.119V-1.43051e-06H210.833C201.667 -1.43051e-06 183.333 -1.43051e-06 165 -1.43051e-06C146.667 -1.43051e-06 128.333 -1.43051e-06 110 -1.43051e-06C91.6667 -1.43051e-06 73.3333 -1.43051e-06 55 -1.43051e-06C36.6667 -1.43051e-06 18.3333 -1.43051e-06 9.16667 -1.43051e-06H0V111Z" fill="#52859E"/>
</svg>
